<mxfile host="Electron" agent="Mozilla/5.0 (X11; Linux x86_64) AppleWebKit/537.36 (KHTML, like Gecko) draw.io/26.2.15 Chrome/134.0.6998.205 Electron/35.2.1 Safari/537.36" version="26.2.15" pages="2">
  <diagram name="Page-1" id="J1de59GJfCuZxLK9HjS5">
    <mxGraphModel dx="1705" dy="999" grid="1" gridSize="10" guides="1" tooltips="1" connect="1" arrows="1" fold="1" page="1" pageScale="1" pageWidth="850" pageHeight="1100" math="0" shadow="0">
      <root>
        <mxCell id="0" />
        <mxCell id="1" parent="0" />
        <mxCell id="gk7BZCuUspIfPRlGgB12-9" value="" style="rounded=1;whiteSpace=wrap;html=1;dashed=1;dashPattern=8 8;" parent="1" vertex="1">
          <mxGeometry x="550" y="20" width="260" height="350" as="geometry" />
        </mxCell>
        <mxCell id="gk7BZCuUspIfPRlGgB12-1" value="Control API" style="rounded=0;whiteSpace=wrap;html=1;" parent="1" vertex="1">
          <mxGeometry x="40" y="130" width="160" height="60" as="geometry" />
        </mxCell>
        <mxCell id="gk7BZCuUspIfPRlGgB12-4" value="Agent" style="rounded=1;whiteSpace=wrap;html=1;" parent="1" vertex="1">
          <mxGeometry x="670" y="60" width="80" height="60" as="geometry" />
        </mxCell>
        <mxCell id="gk7BZCuUspIfPRlGgB12-5" value="Agent" style="rounded=1;whiteSpace=wrap;html=1;" parent="1" vertex="1">
          <mxGeometry x="670" y="150" width="80" height="60" as="geometry" />
        </mxCell>
        <mxCell id="gk7BZCuUspIfPRlGgB12-6" value="..." style="text;html=1;align=center;verticalAlign=middle;whiteSpace=wrap;rounded=0;" parent="1" vertex="1">
          <mxGeometry x="670" y="230" width="60" height="30" as="geometry" />
        </mxCell>
        <mxCell id="gk7BZCuUspIfPRlGgB12-7" value="" style="html=1;verticalLabelPosition=bottom;align=center;labelBackgroundColor=#ffffff;verticalAlign=top;strokeWidth=2;strokeColor=#0080F0;shadow=0;dashed=0;shape=mxgraph.ios7.icons.smartphone;" parent="1" vertex="1">
          <mxGeometry x="620" y="280" width="40" height="60" as="geometry" />
        </mxCell>
        <mxCell id="gk7BZCuUspIfPRlGgB12-8" value="" style="shape=mxgraph.cisco.computers_and_peripherals.laptop;html=1;pointerEvents=1;dashed=0;fillColor=#036897;strokeColor=#ffffff;strokeWidth=2;verticalLabelPosition=bottom;verticalAlign=top;align=center;outlineConnect=0;" parent="1" vertex="1">
          <mxGeometry x="700" y="280" width="90" height="61" as="geometry" />
        </mxCell>
        <mxCell id="gk7BZCuUspIfPRlGgB12-12" value="" style="endArrow=classic;html=1;rounded=0;exitX=0.013;exitY=0.144;exitDx=0;exitDy=0;exitPerimeter=0;" parent="1" edge="1">
          <mxGeometry width="50" height="50" relative="1" as="geometry">
            <mxPoint x="550.3800000000001" y="70.40000000000009" as="sourcePoint" />
            <mxPoint x="217" y="70" as="targetPoint" />
          </mxGeometry>
        </mxCell>
        <mxCell id="gk7BZCuUspIfPRlGgB12-13" value="(1)" style="text;html=1;align=center;verticalAlign=middle;whiteSpace=wrap;rounded=0;" parent="1" vertex="1">
          <mxGeometry x="230" y="40" width="60" height="30" as="geometry" />
        </mxCell>
        <mxCell id="gk7BZCuUspIfPRlGgB12-14" value="" style="endArrow=classic;html=1;rounded=0;entryX=-0.008;entryY=0.292;entryDx=0;entryDy=0;entryPerimeter=0;" parent="1" target="gk7BZCuUspIfPRlGgB12-9" edge="1">
          <mxGeometry width="50" height="50" relative="1" as="geometry">
            <mxPoint x="220" y="122" as="sourcePoint" />
            <mxPoint x="440" y="150" as="targetPoint" />
          </mxGeometry>
        </mxCell>
        <mxCell id="gk7BZCuUspIfPRlGgB12-15" value="(2)" style="text;html=1;align=center;verticalAlign=middle;whiteSpace=wrap;rounded=0;" parent="1" vertex="1">
          <mxGeometry x="230" y="90" width="60" height="30" as="geometry" />
        </mxCell>
        <mxCell id="gk7BZCuUspIfPRlGgB12-16" value="&lt;h1 style=&quot;margin-top: 0px;&quot;&gt;Flow:&lt;/h1&gt;&lt;div&gt;(1): Agent push crawl book request&lt;/div&gt;&lt;div&gt;(2): Refresh task list&lt;/div&gt;&lt;div&gt;(3): Split task and assign task for each agent&lt;/div&gt;&lt;div&gt;(4): Agent send response of task to server&lt;/div&gt;&lt;div&gt;&lt;br&gt;&lt;/div&gt;" style="text;html=1;whiteSpace=wrap;overflow=hidden;rounded=0;" parent="1" vertex="1">
          <mxGeometry x="40" y="440" width="740" height="120" as="geometry" />
        </mxCell>
        <mxCell id="gk7BZCuUspIfPRlGgB12-17" value="" style="endArrow=classic;html=1;rounded=0;entryX=-0.008;entryY=0.292;entryDx=0;entryDy=0;entryPerimeter=0;" parent="1" edge="1">
          <mxGeometry width="50" height="50" relative="1" as="geometry">
            <mxPoint x="222" y="209" as="sourcePoint" />
            <mxPoint x="550" y="209" as="targetPoint" />
          </mxGeometry>
        </mxCell>
        <mxCell id="gk7BZCuUspIfPRlGgB12-18" value="(3)" style="text;html=1;align=center;verticalAlign=middle;whiteSpace=wrap;rounded=0;" parent="1" vertex="1">
          <mxGeometry x="230" y="179.5" width="60" height="30" as="geometry" />
        </mxCell>
        <mxCell id="gk7BZCuUspIfPRlGgB12-19" value="" style="endArrow=classic;html=1;rounded=0;exitX=0.013;exitY=0.144;exitDx=0;exitDy=0;exitPerimeter=0;" parent="1" edge="1">
          <mxGeometry width="50" height="50" relative="1" as="geometry">
            <mxPoint x="550.0000000000001" y="260.4000000000001" as="sourcePoint" />
            <mxPoint x="216.62" y="260" as="targetPoint" />
          </mxGeometry>
        </mxCell>
        <mxCell id="gk7BZCuUspIfPRlGgB12-20" value="(4)" style="text;html=1;align=center;verticalAlign=middle;whiteSpace=wrap;rounded=0;" parent="1" vertex="1">
          <mxGeometry x="229.62" y="230" width="60" height="30" as="geometry" />
        </mxCell>
      </root>
    </mxGraphModel>
  </diagram>
  <diagram id="QNN9B2NaHhB0lrZKfuFr" name="Page-2">
    <mxGraphModel dx="2046" dy="1199" grid="1" gridSize="10" guides="1" tooltips="1" connect="1" arrows="1" fold="1" page="1" pageScale="1" pageWidth="850" pageHeight="1100" math="0" shadow="0">
      <root>
        <mxCell id="0" />
        <mxCell id="1" parent="0" />
      </root>
    </mxGraphModel>
  </diagram>
</mxfile>
